solid Exported from Blender-4.0.2
facet normal -0.905044 -0.305060 -0.296368
outer loop
vertex -0.324035 -1.446802 -0.895414
vertex -1.060675 -1.019415 0.914200
vertex -1.486052 0.836681 0.302677
endloop
endfacet
facet normal -0.905044 -0.305060 -0.296368
outer loop
vertex -0.324035 -1.446802 -0.895414
vertex -1.486052 0.836681 0.302677
vertex -0.749412 0.409294 -1.506937
endloop
endfacet
facet normal -0.212689 0.928048 -0.305762
outer loop
vertex -0.749412 0.409294 -1.506937
vertex -1.486052 0.836681 0.302677
vertex 0.324035 1.446802 0.895414
endloop
endfacet
facet normal -0.212689 0.928048 -0.305762
outer loop
vertex -0.749412 0.409294 -1.506937
vertex 0.324035 1.446802 0.895414
vertex 1.060675 1.019415 -0.914200
endloop
endfacet
facet normal 0.905044 0.305060 0.296368
outer loop
vertex 1.060675 1.019415 -0.914200
vertex 0.324035 1.446802 0.895414
vertex 0.749412 -0.409294 1.506937
endloop
endfacet
facet normal 0.905044 0.305060 0.296368
outer loop
vertex 1.060675 1.019415 -0.914200
vertex 0.749412 -0.409294 1.506937
vertex 1.486052 -0.836681 -0.302677
endloop
endfacet
facet normal 0.212689 -0.928048 0.305761
outer loop
vertex 1.486052 -0.836681 -0.302677
vertex 0.749412 -0.409294 1.506937
vertex -1.060675 -1.019415 0.914200
endloop
endfacet
facet normal 0.212689 -0.928048 0.305762
outer loop
vertex 1.486052 -0.836681 -0.302677
vertex -1.060675 -1.019415 0.914200
vertex -0.324035 -1.446802 -0.895414
endloop
endfacet
facet normal 0.368320 -0.213693 -0.904807
outer loop
vertex -0.749412 0.409294 -1.506937
vertex 1.060675 1.019415 -0.914200
vertex 1.486052 -0.836681 -0.302677
endloop
endfacet
facet normal 0.368320 -0.213693 -0.904807
outer loop
vertex -0.749412 0.409294 -1.506937
vertex 1.486052 -0.836681 -0.302677
vertex -0.324035 -1.446802 -0.895414
endloop
endfacet
facet normal -0.368320 0.213693 0.904807
outer loop
vertex 0.324035 1.446802 0.895414
vertex -1.486052 0.836681 0.302677
vertex -1.060675 -1.019415 0.914200
endloop
endfacet
facet normal -0.368320 0.213693 0.904807
outer loop
vertex 0.324035 1.446802 0.895414
vertex -1.060675 -1.019415 0.914200
vertex 0.749412 -0.409294 1.506937
endloop
endfacet
facet normal -0.185353 -0.909539 -0.371999
outer loop
vertex 2.173130 -2.098282 2.316805
vertex 0.210806 -1.797651 2.559512
vertex 0.101889 -1.022682 0.718979
endloop
endfacet
facet normal -0.185353 -0.909539 -0.371999
outer loop
vertex 2.173130 -2.098282 2.316805
vertex 0.101889 -1.022682 0.718979
vertex 2.064213 -1.323313 0.476272
endloop
endfacet
facet normal -0.054459 0.387484 -0.920267
outer loop
vertex 2.064213 -1.323313 0.476272
vertex 0.101889 -1.022682 0.718979
vertex 0.472594 0.796396 1.462976
endloop
endfacet
facet normal -0.054459 0.387484 -0.920266
outer loop
vertex 2.064213 -1.323313 0.476272
vertex 0.472594 0.796396 1.462976
vertex 2.434918 0.495765 1.220269
endloop
endfacet
facet normal 0.185353 0.909539 0.371999
outer loop
vertex 2.434918 0.495765 1.220269
vertex 0.472594 0.796396 1.462976
vertex 0.581512 0.021428 3.303509
endloop
endfacet
facet normal 0.185353 0.909539 0.371999
outer loop
vertex 2.434918 0.495765 1.220269
vertex 0.581512 0.021428 3.303509
vertex 2.543835 -0.279203 3.060802
endloop
endfacet
facet normal 0.054459 -0.387484 0.920267
outer loop
vertex 2.543835 -0.279203 3.060802
vertex 0.581512 0.021428 3.303509
vertex 0.210806 -1.797651 2.559512
endloop
endfacet
facet normal 0.054459 -0.387484 0.920267
outer loop
vertex 2.543835 -0.279203 3.060802
vertex 0.210806 -1.797651 2.559512
vertex 2.173130 -2.098282 2.316805
endloop
endfacet
facet normal 0.981162 -0.150316 -0.121353
outer loop
vertex 2.064213 -1.323313 0.476272
vertex 2.434918 0.495765 1.220269
vertex 2.543835 -0.279203 3.060802
endloop
endfacet
facet normal 0.981162 -0.150315 -0.121353
outer loop
vertex 2.064213 -1.323313 0.476272
vertex 2.543835 -0.279203 3.060802
vertex 2.173130 -2.098282 2.316805
endloop
endfacet
facet normal -0.981162 0.150315 0.121354
outer loop
vertex 0.472594 0.796396 1.462976
vertex 0.101889 -1.022682 0.718979
vertex 0.210806 -1.797651 2.559512
endloop
endfacet
facet normal -0.981162 0.150315 0.121354
outer loop
vertex 0.472594 0.796396 1.462976
vertex 0.210806 -1.797651 2.559512
vertex 0.581512 0.021428 3.303509
endloop
endfacet
endsolid Exported from Blender-4.0.2
