solid Exported from Blender-4.0.2
facet normal 0.000000 0.000000 1.000000
outer loop
vertex 1.000000 1.000000 1.000000
vertex -1.000000 1.000000 1.000000
vertex -1.000000 -1.000000 1.000000
endloop
endfacet
facet normal 0.000000 0.000000 1.000000
outer loop
vertex 1.000000 1.000000 1.000000
vertex -1.000000 -1.000000 1.000000
vertex 1.000000 -1.000000 1.000000
endloop
endfacet
facet normal 0.000000 -1.000000 0.000000
outer loop
vertex 1.000000 -1.000000 -1.000000
vertex 1.000000 -1.000000 1.000000
vertex -1.000000 -1.000000 1.000000
endloop
endfacet
facet normal 0.000000 -1.000000 0.000000
outer loop
vertex 1.000000 -1.000000 -1.000000
vertex -1.000000 -1.000000 1.000000
vertex -1.000000 -1.000000 -1.000000
endloop
endfacet
facet normal -1.000000 0.000000 0.000000
outer loop
vertex -1.000000 -1.000000 -1.000000
vertex -1.000000 -1.000000 1.000000
vertex -1.000000 1.000000 1.000000
endloop
endfacet
facet normal -1.000000 0.000000 0.000000
outer loop
vertex -1.000000 -1.000000 -1.000000
vertex -1.000000 1.000000 1.000000
vertex -1.000000 1.000000 -1.000000
endloop
endfacet
facet normal 0.000000 0.000000 -1.000000
outer loop
vertex -1.000000 1.000000 -1.000000
vertex 1.000000 1.000000 -1.000000
vertex 1.000000 -1.000000 -1.000000
endloop
endfacet
facet normal 0.000000 0.000000 -1.000000
outer loop
vertex -1.000000 1.000000 -1.000000
vertex 1.000000 -1.000000 -1.000000
vertex -1.000000 -1.000000 -1.000000
endloop
endfacet
facet normal 1.000000 0.000000 0.000000
outer loop
vertex 1.000000 1.000000 -1.000000
vertex 1.000000 1.000000 1.000000
vertex 1.000000 -1.000000 1.000000
endloop
endfacet
facet normal 1.000000 0.000000 0.000000
outer loop
vertex 1.000000 1.000000 -1.000000
vertex 1.000000 -1.000000 1.000000
vertex 1.000000 -1.000000 -1.000000
endloop
endfacet
facet normal 0.000000 1.000000 0.000000
outer loop
vertex -1.000000 1.000000 -1.000000
vertex -1.000000 1.000000 1.000000
vertex 1.000000 1.000000 1.000000
endloop
endfacet
facet normal 0.000000 1.000000 0.000000
outer loop
vertex -1.000000 1.000000 -1.000000
vertex 1.000000 1.000000 1.000000
vertex 1.000000 1.000000 -1.000000
endloop
endfacet
facet normal 0.000000 0.000000 1.000000
outer loop
vertex 1.953879 2.222523 0.239742
vertex -0.046121 2.222523 0.239742
vertex -0.046121 0.222523 0.239742
endloop
endfacet
facet normal 0.000000 0.000000 1.000000
outer loop
vertex 1.953879 2.222523 0.239742
vertex -0.046121 0.222523 0.239742
vertex 1.953879 0.222523 0.239742
endloop
endfacet
facet normal 0.000000 -1.000000 0.000000
outer loop
vertex 1.953879 0.222523 -1.760258
vertex 1.953879 0.222523 0.239742
vertex -0.046121 0.222523 0.239742
endloop
endfacet
facet normal 0.000000 -1.000000 0.000000
outer loop
vertex 1.953879 0.222523 -1.760258
vertex -0.046121 0.222523 0.239742
vertex -0.046121 0.222523 -1.760258
endloop
endfacet
facet normal -1.000000 0.000000 0.000000
outer loop
vertex -0.046121 0.222523 -1.760258
vertex -0.046121 0.222523 0.239742
vertex -0.046121 2.222523 0.239742
endloop
endfacet
facet normal -1.000000 0.000000 0.000000
outer loop
vertex -0.046121 0.222523 -1.760258
vertex -0.046121 2.222523 0.239742
vertex -0.046121 2.222523 -1.760258
endloop
endfacet
facet normal 0.000000 0.000000 -1.000000
outer loop
vertex -0.046121 2.222523 -1.760258
vertex 1.953879 2.222523 -1.760258
vertex 1.953879 0.222523 -1.760258
endloop
endfacet
facet normal 0.000000 0.000000 -1.000000
outer loop
vertex -0.046121 2.222523 -1.760258
vertex 1.953879 0.222523 -1.760258
vertex -0.046121 0.222523 -1.760258
endloop
endfacet
facet normal 1.000000 0.000000 0.000000
outer loop
vertex 1.953879 2.222523 -1.760258
vertex 1.953879 2.222523 0.239742
vertex 1.953879 0.222523 0.239742
endloop
endfacet
facet normal 1.000000 0.000000 0.000000
outer loop
vertex 1.953879 2.222523 -1.760258
vertex 1.953879 0.222523 0.239742
vertex 1.953879 0.222523 -1.760258
endloop
endfacet
facet normal 0.000000 1.000000 0.000000
outer loop
vertex -0.046121 2.222523 -1.760258
vertex -0.046121 2.222523 0.239742
vertex 1.953879 2.222523 0.239742
endloop
endfacet
facet normal 0.000000 1.000000 0.000000
outer loop
vertex -0.046121 2.222523 -1.760258
vertex 1.953879 2.222523 0.239742
vertex 1.953879 2.222523 -1.760258
endloop
endfacet
endsolid Exported from Blender-4.0.2
